<svg  data-name="Layer 1" xmlns="http://www.w3.org/2000/svg" viewBox="0 0 160.97 37"><defs>
<style>.cls-1{fill:#fff;}.cls-2{fill:#aaa081;}</style></defs>
<path class="cls-1" d="M71.07,8.37v.56a4.22,4.22,0,0,0-1.35.21,1,1,0,0,0-.6.68A5.57,5.57,0,0,0,69,11.34V25.23a5.64,5.64,0,0,0,.15,1.51,1,1,0,0,0,.6.67,4.75,4.75,0,0,0,1.35.23v.56c-.53,0-1.18-.06-2-.07H64.15c-.78,0-1.42,0-1.9.07v-.56a5.52,5.52,0,0,0,1.44-.23,1,1,0,0,0,.66-.67,5.18,5.18,0,0,0,.16-1.51V10.08h.2L57.77,28.23h-.45l-7.56-18V23.61A11.93,11.93,0,0,0,49.93,26a1.69,1.69,0,0,0,.74,1.18,4.56,4.56,0,0,0,1.8.49v.56c-.35,0-.82-.06-1.4-.07H48.13A10.77,10.77,0,0,0,47,28.2v-.56a2.94,2.94,0,0,0,1.35-.48,1.71,1.71,0,0,0,.6-1.1,11.72,11.72,0,0,0,.15-2.12V11.34A5.57,5.57,0,0,0,49,9.82a1,1,0,0,0-.62-.68A4.18,4.18,0,0,0,47,8.93V8.37l1.12.06,1.32,0q1.2,0,2.37,0l2-.06,5.88,14.2-.7.65L64.68,8.46h2c.82,0,1.63,0,2.42,0Z" transform="translate(-1.51 -1.12)"/>
<path class="cls-1" d="M90.78,8.37v.56a2.82,2.82,0,0,0-1.36.47,1.67,1.67,0,0,0-.6,1.1,11.85,11.85,0,0,0-.14,2.13v7.42a21.29,21.29,0,0,1-.25,3.33,7.58,7.58,0,0,1-.9,2.61,5,5,0,0,1-2.13,1.9,7.88,7.88,0,0,1-3.55.7,12.77,12.77,0,0,1-2.64-.29,6.14,6.14,0,0,1-2.4-1.11,5.32,5.32,0,0,1-1.38-1.71,7.1,7.1,0,0,1-.64-2.25,24.93,24.93,0,0,1-.17-3.09v-8.8a5.57,5.57,0,0,0-.15-1.52,1,1,0,0,0-.6-.68,4.22,4.22,0,0,0-1.35-.21V8.37l1.89.06c.8,0,1.62,0,2.48,0s1.68,0,2.48,0l2-.06v.56a4.89,4.89,0,0,0-1.44.21,1.06,1.06,0,0,0-.66.68,5.06,5.06,0,0,0-.17,1.52V21.9a12.74,12.74,0,0,0,.34,3.15A3.37,3.37,0,0,0,80.6,27a3.8,3.8,0,0,0,2.34.64A4.66,4.66,0,0,0,86,26.69a5,5,0,0,0,1.57-2.57A13.77,13.77,0,0,0,88,20.36V13a11,11,0,0,0-.19-2.37,1.83,1.83,0,0,0-.77-1.19,4.19,4.19,0,0,0-1.75-.48V8.37l1.4.06,1.62,0c.45,0,.89,0,1.33,0Z" transform="translate(-1.51 -1.12)"/>
<path class="cls-1" d="M99.23,8a7.39,7.39,0,0,1,2.55.35,9.65,9.65,0,0,1,1.54.74l.55.3a1,1,0,0,0,.4.09c.3,0,.51-.41.62-1.23h.64c0,.36,0,.78-.07,1.28s0,1.14,0,1.94,0,1.86,0,3.17h-.64a9.28,9.28,0,0,0-.67-2.83,5.79,5.79,0,0,0-1.58-2.25A3.72,3.72,0,0,0,100,8.68a3.21,3.21,0,0,0-2.21.76,2.62,2.62,0,0,0-.87,2.1,3.27,3.27,0,0,0,.56,1.92A6.48,6.48,0,0,0,99.11,15l2.62,1.82a27.71,27.71,0,0,1,2.4,1.74,7.34,7.34,0,0,1,1.71,2,5,5,0,0,1,.65,2.6,4.74,4.74,0,0,1-1,3.05A5.8,5.8,0,0,1,103,28a9.62,9.62,0,0,1-3.45.6,9.38,9.38,0,0,1-2.77-.33A11.53,11.53,0,0,1,95,27.55a2,2,0,0,0-1-.39c-.3,0-.5.41-.61,1.23h-.65c0-.44.06-1,.07-1.56s0-1.38,0-2.34,0-2.18,0-3.65h.65a13.53,13.53,0,0,0,.63,3.45,5.7,5.7,0,0,0,1.59,2.59,4.08,4.08,0,0,0,2.87,1,3.92,3.92,0,0,0,2.47-.78,2.8,2.8,0,0,0,1-2.35A3.82,3.82,0,0,0,101,21.86a19.87,19.87,0,0,0-3-2.34c-.88-.58-1.7-1.16-2.47-1.74a7.26,7.26,0,0,1-1.83-2A5,5,0,0,1,93,13.14a4.62,4.62,0,0,1,.88-2.9,5.19,5.19,0,0,1,2.33-1.68A8.43,8.43,0,0,1,99.23,8Z" transform="translate(-1.51 -1.12)"/>
<path class="cls-1" d="M117.24,8.37v.56a4.34,4.34,0,0,0-1.36.21,1,1,0,0,0-.6.68,5.66,5.66,0,0,0-.14,1.52V25.23a5.64,5.64,0,0,0,.15,1.51,1,1,0,0,0,.6.67,4.75,4.75,0,0,0,1.35.23v.56c-.51,0-1.14-.06-1.91-.07h-4.85c-.78,0-1.41,0-1.89.07v-.56a4.73,4.73,0,0,0,1.34-.23,1,1,0,0,0,.6-.67,5.56,5.56,0,0,0,.16-1.51V11.34a5.49,5.49,0,0,0-.16-1.52,1,1,0,0,0-.61-.68,4.29,4.29,0,0,0-1.33-.21V8.37l1.89.06c.77,0,1.62,0,2.53,0s1.56,0,2.32,0Z" transform="translate(-1.51 -1.12)"/>
<path class="cls-1" d="M137,8.37v.56a2.82,2.82,0,0,0-1.36.47,1.67,1.67,0,0,0-.6,1.1,12.86,12.86,0,0,0-.14,2.13v7.42a21.29,21.29,0,0,1-.25,3.33,7.58,7.58,0,0,1-.9,2.61,5,5,0,0,1-2.13,1.9,7.88,7.88,0,0,1-3.55.7,12.61,12.61,0,0,1-2.63-.29A6.12,6.12,0,0,1,123,27.19a5.15,5.15,0,0,1-1.37-1.71,6.84,6.84,0,0,1-.65-2.25,24.93,24.93,0,0,1-.17-3.09v-8.8a5.57,5.57,0,0,0-.15-1.52,1,1,0,0,0-.6-.68,4.22,4.22,0,0,0-1.35-.21V8.37l1.89.06c.8,0,1.62,0,2.48,0s1.69,0,2.48,0l2-.06v.56a4.89,4.89,0,0,0-1.44.21,1.09,1.09,0,0,0-.66.68,5.13,5.13,0,0,0-.16,1.52V21.9a12.79,12.79,0,0,0,.33,3.15A3.37,3.37,0,0,0,126.77,27a3.8,3.8,0,0,0,2.34.64,4.69,4.69,0,0,0,3.07-.92,5,5,0,0,0,1.56-2.57,13.75,13.75,0,0,0,.47-3.76V13a10.89,10.89,0,0,0-.2-2.37,1.83,1.83,0,0,0-.77-1.19,4.19,4.19,0,0,0-1.75-.48V8.37l1.4.06,1.62,0c.45,0,.89,0,1.33,0Z" transform="translate(-1.51 -1.12)"/>
<path class="cls-1" d="M162.49,8.37v.56a4.22,4.22,0,0,0-1.35.21,1,1,0,0,0-.6.68,5.57,5.57,0,0,0-.15,1.52V25.23a5.64,5.64,0,0,0,.15,1.51,1,1,0,0,0,.6.67,4.75,4.75,0,0,0,1.35.23v.56c-.53,0-1.19-.06-2-.07h-4.94c-.78,0-1.42,0-1.9.07v-.56a5.52,5.52,0,0,0,1.44-.23,1,1,0,0,0,.65-.67,4.8,4.8,0,0,0,.17-1.51V10.08h.2l-6.94,18.15h-.45l-7.56-18V23.61a11.93,11.93,0,0,0,.17,2.36,1.66,1.66,0,0,0,.74,1.18,4.56,4.56,0,0,0,1.8.49v.56c-.35,0-.82-.06-1.4-.07h-2.94a10.77,10.77,0,0,0-1.12.07v-.56a2.94,2.94,0,0,0,1.35-.48,1.71,1.71,0,0,0,.6-1.1,11.72,11.72,0,0,0,.15-2.12V11.34a5.57,5.57,0,0,0-.15-1.52,1,1,0,0,0-.62-.68,4.18,4.18,0,0,0-1.33-.21V8.37l1.12.06,1.32,0q1.2,0,2.37,0l2-.06,5.88,14.2-.7.65L156.1,8.46h2c.82,0,1.63,0,2.42,0Z" transform="translate(-1.51 -1.12)"/><rect class="cls-2" width="37" height="37"/>
<path class="cls-1" d="M32.07,8.37v.56a4.22,4.22,0,0,0-1.35.21,1,1,0,0,0-.6.68A5.57,5.57,0,0,0,30,11.34V25.23a5.64,5.64,0,0,0,.15,1.51,1,1,0,0,0,.6.67,4.75,4.75,0,0,0,1.35.23v.56c-.53,0-1.18-.06-2-.07H25.15c-.78,0-1.42,0-1.9.07v-.56a5.52,5.52,0,0,0,1.44-.23,1,1,0,0,0,.66-.67,5.18,5.18,0,0,0,.16-1.51V10.08h.2L18.77,28.23h-.45l-7.56-18V23.61A11.93,11.93,0,0,0,10.93,26a1.69,1.69,0,0,0,.74,1.18,4.56,4.56,0,0,0,1.8.49v.56c-.35,0-.82-.06-1.4-.07H9.13A10.77,10.77,0,0,0,8,28.2v-.56a2.94,2.94,0,0,0,1.35-.48,1.71,1.71,0,0,0,.6-1.1,11.72,11.72,0,0,0,.15-2.12V11.34A5.57,5.57,0,0,0,10,9.82a1,1,0,0,0-.62-.68A4.18,4.18,0,0,0,8,8.93V8.37l1.12.06,1.32,0q1.2,0,2.37,0l2-.06,5.88,14.2-.7.65L25.68,8.46h2c.82,0,1.63,0,2.42,0Z" transform="translate(-1.51 -1.12)"/></svg>